<mxfile host="app.diagrams.net" modified="2021-05-21T11:40:46.576Z" agent="5.0 (Windows NT 10.0; Win64; x64) AppleWebKit/537.36 (KHTML, like Gecko) Chrome/90.0.4430.212 Safari/537.36 Edg/90.0.818.62" etag="qc9clnxZScGBau4Sr4bC" version="14.6.11" type="github">
  <diagram id="eksj7m2vn0qDqSCLLo_n" name="Page-1">
    <mxGraphModel dx="2243" dy="1025" grid="0" gridSize="10" guides="1" tooltips="1" connect="1" arrows="1" fold="1" page="0" pageScale="1" pageWidth="850" pageHeight="1100" math="0" shadow="0">
      <root>
        <mxCell id="0" />
        <mxCell id="1" parent="0" />
        <mxCell id="OF8LOPhTF82KZLXo9wo0-91" style="edgeStyle=orthogonalEdgeStyle;rounded=0;orthogonalLoop=1;jettySize=auto;html=1;startArrow=classic;startFill=1;endArrow=none;endFill=0;" edge="1" parent="1" source="OF8LOPhTF82KZLXo9wo0-1">
          <mxGeometry relative="1" as="geometry">
            <mxPoint x="280" y="919" as="targetPoint" />
          </mxGeometry>
        </mxCell>
        <mxCell id="OF8LOPhTF82KZLXo9wo0-130" style="edgeStyle=orthogonalEdgeStyle;rounded=0;orthogonalLoop=1;jettySize=auto;html=1;entryX=0.5;entryY=0;entryDx=0;entryDy=0;entryPerimeter=0;startArrow=classic;startFill=1;endArrow=classic;endFill=1;" edge="1" parent="1" source="OF8LOPhTF82KZLXo9wo0-1" target="OF8LOPhTF82KZLXo9wo0-122">
          <mxGeometry relative="1" as="geometry" />
        </mxCell>
        <mxCell id="OF8LOPhTF82KZLXo9wo0-1" value="" style="points=[[0,0,0],[0.25,0,0],[0.5,0,0],[0.75,0,0],[1,0,0],[0,1,0],[0.25,1,0],[0.5,1,0],[0.75,1,0],[1,1,0],[0,0.25,0],[0,0.5,0],[0,0.75,0],[1,0.25,0],[1,0.5,0],[1,0.75,0]];outlineConnect=0;fontColor=#232F3E;gradientColor=#945DF2;gradientDirection=north;fillColor=#5A30B5;strokeColor=#ffffff;dashed=0;verticalLabelPosition=bottom;verticalAlign=top;align=center;html=1;fontSize=12;fontStyle=0;aspect=fixed;shape=mxgraph.aws4.resourceIcon;resIcon=mxgraph.aws4.transit_gateway;" vertex="1" parent="1">
          <mxGeometry x="600" y="880" width="78" height="78" as="geometry" />
        </mxCell>
        <mxCell id="OF8LOPhTF82KZLXo9wo0-2" value="VPC" style="points=[[0,0],[0.25,0],[0.5,0],[0.75,0],[1,0],[1,0.25],[1,0.5],[1,0.75],[1,1],[0.75,1],[0.5,1],[0.25,1],[0,1],[0,0.75],[0,0.5],[0,0.25]];outlineConnect=0;gradientColor=none;html=1;whiteSpace=wrap;fontSize=12;fontStyle=0;shape=mxgraph.aws4.group;grIcon=mxgraph.aws4.group_vpc;strokeColor=#248814;fillColor=none;verticalAlign=top;align=left;spacingLeft=30;fontColor=#AAB7B8;dashed=0;" vertex="1" parent="1">
          <mxGeometry x="360" y="-200" width="160" height="60" as="geometry" />
        </mxCell>
        <mxCell id="OF8LOPhTF82KZLXo9wo0-3" value="VPC" style="points=[[0,0],[0.25,0],[0.5,0],[0.75,0],[1,0],[1,0.25],[1,0.5],[1,0.75],[1,1],[0.75,1],[0.5,1],[0.25,1],[0,1],[0,0.75],[0,0.5],[0,0.25]];outlineConnect=0;gradientColor=none;html=1;whiteSpace=wrap;fontSize=12;fontStyle=0;shape=mxgraph.aws4.group;grIcon=mxgraph.aws4.group_vpc;strokeColor=#248814;fillColor=none;verticalAlign=top;align=left;spacingLeft=30;fontColor=#AAB7B8;dashed=0;" vertex="1" parent="1">
          <mxGeometry x="360" y="400" width="160" height="60" as="geometry" />
        </mxCell>
        <mxCell id="OF8LOPhTF82KZLXo9wo0-4" value="VPC" style="points=[[0,0],[0.25,0],[0.5,0],[0.75,0],[1,0],[1,0.25],[1,0.5],[1,0.75],[1,1],[0.75,1],[0.5,1],[0.25,1],[0,1],[0,0.75],[0,0.5],[0,0.25]];outlineConnect=0;gradientColor=none;html=1;whiteSpace=wrap;fontSize=12;fontStyle=0;shape=mxgraph.aws4.group;grIcon=mxgraph.aws4.group_vpc;strokeColor=#248814;fillColor=none;verticalAlign=top;align=left;spacingLeft=30;fontColor=#AAB7B8;dashed=0;" vertex="1" parent="1">
          <mxGeometry x="360" y="160" width="160" height="60" as="geometry" />
        </mxCell>
        <mxCell id="OF8LOPhTF82KZLXo9wo0-5" value="VPC" style="points=[[0,0],[0.25,0],[0.5,0],[0.75,0],[1,0],[1,0.25],[1,0.5],[1,0.75],[1,1],[0.75,1],[0.5,1],[0.25,1],[0,1],[0,0.75],[0,0.5],[0,0.25]];outlineConnect=0;gradientColor=none;html=1;whiteSpace=wrap;fontSize=12;fontStyle=0;shape=mxgraph.aws4.group;grIcon=mxgraph.aws4.group_vpc;strokeColor=#248814;fillColor=none;verticalAlign=top;align=left;spacingLeft=30;fontColor=#AAB7B8;dashed=0;" vertex="1" parent="1">
          <mxGeometry x="360" y="40" width="160" height="60" as="geometry" />
        </mxCell>
        <mxCell id="OF8LOPhTF82KZLXo9wo0-6" value="VPC" style="points=[[0,0],[0.25,0],[0.5,0],[0.75,0],[1,0],[1,0.25],[1,0.5],[1,0.75],[1,1],[0.75,1],[0.5,1],[0.25,1],[0,1],[0,0.75],[0,0.5],[0,0.25]];outlineConnect=0;gradientColor=none;html=1;whiteSpace=wrap;fontSize=12;fontStyle=0;shape=mxgraph.aws4.group;grIcon=mxgraph.aws4.group_vpc;strokeColor=#248814;fillColor=none;verticalAlign=top;align=left;spacingLeft=30;fontColor=#AAB7B8;dashed=0;" vertex="1" parent="1">
          <mxGeometry x="40" y="-30" width="160" height="60" as="geometry" />
        </mxCell>
        <mxCell id="OF8LOPhTF82KZLXo9wo0-11" value="VPC" style="points=[[0,0],[0.25,0],[0.5,0],[0.75,0],[1,0],[1,0.25],[1,0.5],[1,0.75],[1,1],[0.75,1],[0.5,1],[0.25,1],[0,1],[0,0.75],[0,0.5],[0,0.25]];outlineConnect=0;gradientColor=none;html=1;whiteSpace=wrap;fontSize=12;fontStyle=0;shape=mxgraph.aws4.group;grIcon=mxgraph.aws4.group_vpc;strokeColor=#248814;fillColor=none;verticalAlign=top;align=left;spacingLeft=30;fontColor=#AAB7B8;dashed=0;" vertex="1" parent="1">
          <mxGeometry x="40" y="-150" width="160" height="60" as="geometry" />
        </mxCell>
        <mxCell id="OF8LOPhTF82KZLXo9wo0-12" value="VPC" style="points=[[0,0],[0.25,0],[0.5,0],[0.75,0],[1,0],[1,0.25],[1,0.5],[1,0.75],[1,1],[0.75,1],[0.5,1],[0.25,1],[0,1],[0,0.75],[0,0.5],[0,0.25]];outlineConnect=0;gradientColor=none;html=1;whiteSpace=wrap;fontSize=12;fontStyle=0;shape=mxgraph.aws4.group;grIcon=mxgraph.aws4.group_vpc;strokeColor=#248814;fillColor=none;verticalAlign=top;align=left;spacingLeft=30;fontColor=#AAB7B8;dashed=0;" vertex="1" parent="1">
          <mxGeometry x="39" y="100" width="160" height="60" as="geometry" />
        </mxCell>
        <mxCell id="OF8LOPhTF82KZLXo9wo0-13" value="VPC" style="points=[[0,0],[0.25,0],[0.5,0],[0.75,0],[1,0],[1,0.25],[1,0.5],[1,0.75],[1,1],[0.75,1],[0.5,1],[0.25,1],[0,1],[0,0.75],[0,0.5],[0,0.25]];outlineConnect=0;gradientColor=none;html=1;whiteSpace=wrap;fontSize=12;fontStyle=0;shape=mxgraph.aws4.group;grIcon=mxgraph.aws4.group_vpc;strokeColor=#248814;fillColor=none;verticalAlign=top;align=left;spacingLeft=30;fontColor=#AAB7B8;dashed=0;" vertex="1" parent="1">
          <mxGeometry x="360" y="-80" width="160" height="60" as="geometry" />
        </mxCell>
        <mxCell id="OF8LOPhTF82KZLXo9wo0-14" value="VPC" style="points=[[0,0],[0.25,0],[0.5,0],[0.75,0],[1,0],[1,0.25],[1,0.5],[1,0.75],[1,1],[0.75,1],[0.5,1],[0.25,1],[0,1],[0,0.75],[0,0.5],[0,0.25]];outlineConnect=0;gradientColor=none;html=1;whiteSpace=wrap;fontSize=12;fontStyle=0;shape=mxgraph.aws4.group;grIcon=mxgraph.aws4.group_vpc;strokeColor=#248814;fillColor=none;verticalAlign=top;align=left;spacingLeft=30;fontColor=#AAB7B8;dashed=0;" vertex="1" parent="1">
          <mxGeometry x="360" y="658" width="160" height="60" as="geometry" />
        </mxCell>
        <mxCell id="OF8LOPhTF82KZLXo9wo0-16" value="VPC" style="points=[[0,0],[0.25,0],[0.5,0],[0.75,0],[1,0],[1,0.25],[1,0.5],[1,0.75],[1,1],[0.75,1],[0.5,1],[0.25,1],[0,1],[0,0.75],[0,0.5],[0,0.25]];outlineConnect=0;gradientColor=none;html=1;whiteSpace=wrap;fontSize=12;fontStyle=0;shape=mxgraph.aws4.group;grIcon=mxgraph.aws4.group_vpc;strokeColor=#248814;fillColor=none;verticalAlign=top;align=left;spacingLeft=30;fontColor=#AAB7B8;dashed=0;" vertex="1" parent="1">
          <mxGeometry x="360" y="530" width="160" height="60" as="geometry" />
        </mxCell>
        <mxCell id="OF8LOPhTF82KZLXo9wo0-17" value="VPC" style="points=[[0,0],[0.25,0],[0.5,0],[0.75,0],[1,0],[1,0.25],[1,0.5],[1,0.75],[1,1],[0.75,1],[0.5,1],[0.25,1],[0,1],[0,0.75],[0,0.5],[0,0.25]];outlineConnect=0;gradientColor=none;html=1;whiteSpace=wrap;fontSize=12;fontStyle=0;shape=mxgraph.aws4.group;grIcon=mxgraph.aws4.group_vpc;strokeColor=#248814;fillColor=none;verticalAlign=top;align=left;spacingLeft=30;fontColor=#AAB7B8;dashed=0;" vertex="1" parent="1">
          <mxGeometry x="360" y="277.5" width="160" height="60" as="geometry" />
        </mxCell>
        <mxCell id="OF8LOPhTF82KZLXo9wo0-20" value="VPC" style="points=[[0,0],[0.25,0],[0.5,0],[0.75,0],[1,0],[1,0.25],[1,0.5],[1,0.75],[1,1],[0.75,1],[0.5,1],[0.25,1],[0,1],[0,0.75],[0,0.5],[0,0.25]];outlineConnect=0;gradientColor=none;html=1;whiteSpace=wrap;fontSize=12;fontStyle=0;shape=mxgraph.aws4.group;grIcon=mxgraph.aws4.group_vpc;strokeColor=#248814;fillColor=none;verticalAlign=top;align=left;spacingLeft=30;fontColor=#AAB7B8;dashed=0;" vertex="1" parent="1">
          <mxGeometry x="360" y="760" width="160" height="60" as="geometry" />
        </mxCell>
        <mxCell id="OF8LOPhTF82KZLXo9wo0-21" value="VPC" style="points=[[0,0],[0.25,0],[0.5,0],[0.75,0],[1,0],[1,0.25],[1,0.5],[1,0.75],[1,1],[0.75,1],[0.5,1],[0.25,1],[0,1],[0,0.75],[0,0.5],[0,0.25]];outlineConnect=0;gradientColor=none;html=1;whiteSpace=wrap;fontSize=12;fontStyle=0;shape=mxgraph.aws4.group;grIcon=mxgraph.aws4.group_vpc;strokeColor=#248814;fillColor=none;verticalAlign=top;align=left;spacingLeft=30;fontColor=#AAB7B8;dashed=0;" vertex="1" parent="1">
          <mxGeometry x="40" y="257.5" width="160" height="60" as="geometry" />
        </mxCell>
        <mxCell id="OF8LOPhTF82KZLXo9wo0-22" value="VPC" style="points=[[0,0],[0.25,0],[0.5,0],[0.75,0],[1,0],[1,0.25],[1,0.5],[1,0.75],[1,1],[0.75,1],[0.5,1],[0.25,1],[0,1],[0,0.75],[0,0.5],[0,0.25]];outlineConnect=0;gradientColor=none;html=1;whiteSpace=wrap;fontSize=12;fontStyle=0;shape=mxgraph.aws4.group;grIcon=mxgraph.aws4.group_vpc;strokeColor=#248814;fillColor=none;verticalAlign=top;align=left;spacingLeft=30;fontColor=#AAB7B8;dashed=0;" vertex="1" parent="1">
          <mxGeometry x="39" y="400" width="160" height="60" as="geometry" />
        </mxCell>
        <mxCell id="OF8LOPhTF82KZLXo9wo0-23" value="VPC" style="points=[[0,0],[0.25,0],[0.5,0],[0.75,0],[1,0],[1,0.25],[1,0.5],[1,0.75],[1,1],[0.75,1],[0.5,1],[0.25,1],[0,1],[0,0.75],[0,0.5],[0,0.25]];outlineConnect=0;gradientColor=none;html=1;whiteSpace=wrap;fontSize=12;fontStyle=0;shape=mxgraph.aws4.group;grIcon=mxgraph.aws4.group_vpc;strokeColor=#248814;fillColor=none;verticalAlign=top;align=left;spacingLeft=30;fontColor=#AAB7B8;dashed=0;" vertex="1" parent="1">
          <mxGeometry x="39" y="540" width="160" height="60" as="geometry" />
        </mxCell>
        <mxCell id="OF8LOPhTF82KZLXo9wo0-24" value="VPC" style="points=[[0,0],[0.25,0],[0.5,0],[0.75,0],[1,0],[1,0.25],[1,0.5],[1,0.75],[1,1],[0.75,1],[0.5,1],[0.25,1],[0,1],[0,0.75],[0,0.5],[0,0.25]];outlineConnect=0;gradientColor=none;html=1;whiteSpace=wrap;fontSize=12;fontStyle=0;shape=mxgraph.aws4.group;grIcon=mxgraph.aws4.group_vpc;strokeColor=#248814;fillColor=none;verticalAlign=top;align=left;spacingLeft=30;fontColor=#AAB7B8;dashed=0;" vertex="1" parent="1">
          <mxGeometry x="40" y="630" width="160" height="60" as="geometry" />
        </mxCell>
        <mxCell id="OF8LOPhTF82KZLXo9wo0-25" value="VPC" style="points=[[0,0],[0.25,0],[0.5,0],[0.75,0],[1,0],[1,0.25],[1,0.5],[1,0.75],[1,1],[0.75,1],[0.5,1],[0.25,1],[0,1],[0,0.75],[0,0.5],[0,0.25]];outlineConnect=0;gradientColor=none;html=1;whiteSpace=wrap;fontSize=12;fontStyle=0;shape=mxgraph.aws4.group;grIcon=mxgraph.aws4.group_vpc;strokeColor=#248814;fillColor=none;verticalAlign=top;align=left;spacingLeft=30;fontColor=#AAB7B8;dashed=0;" vertex="1" parent="1">
          <mxGeometry x="40" y="718" width="160" height="60" as="geometry" />
        </mxCell>
        <mxCell id="OF8LOPhTF82KZLXo9wo0-27" value="&lt;font style=&quot;font-size: 10px&quot;&gt;tgw-0c6904a332aee1aa1&lt;/font&gt;" style="text;html=1;resizable=0;autosize=1;align=center;verticalAlign=middle;points=[];fillColor=none;strokeColor=none;rounded=0;" vertex="1" parent="1">
          <mxGeometry x="460" y="890" width="130" height="20" as="geometry" />
        </mxCell>
        <mxCell id="OF8LOPhTF82KZLXo9wo0-28" value="&lt;font style=&quot;font-size: 10px&quot;&gt;&lt;span&gt;AWS-Check-Point-Cluster_VPC&lt;/span&gt;&lt;br&gt;&lt;span&gt;vpc-0ae9b37f37cdd5377&lt;/span&gt;&lt;br&gt;&lt;/font&gt;" style="text;html=1;resizable=0;autosize=1;align=center;verticalAlign=middle;points=[];fillColor=none;strokeColor=none;rounded=0;" vertex="1" parent="1">
          <mxGeometry x="37" y="880" width="160" height="30" as="geometry" />
        </mxCell>
        <mxCell id="OF8LOPhTF82KZLXo9wo0-30" value="&lt;font style=&quot;font-size: 9px&quot;&gt;&lt;span&gt;testSpoke2&lt;/span&gt;&lt;br&gt;&lt;span&gt;vpc-0d50c802ae3172d16&lt;/span&gt;&lt;br&gt;&lt;/font&gt;" style="text;html=1;resizable=0;autosize=1;align=center;verticalAlign=middle;points=[];fillColor=none;strokeColor=none;rounded=0;" vertex="1" parent="1">
          <mxGeometry x="60" y="775" width="120" height="30" as="geometry" />
        </mxCell>
        <mxCell id="OF8LOPhTF82KZLXo9wo0-31" value="&lt;font style=&quot;font-size: 10px&quot;&gt;&lt;span&gt;testSpoke1&lt;/span&gt;&lt;br&gt;&lt;span&gt;vpc-0d1a3cc19f896f52b&lt;/span&gt;&lt;br&gt;&lt;/font&gt;" style="text;html=1;resizable=0;autosize=1;align=center;verticalAlign=middle;points=[];fillColor=none;strokeColor=none;rounded=0;" vertex="1" parent="1">
          <mxGeometry x="55" y="688" width="120" height="30" as="geometry" />
        </mxCell>
        <mxCell id="OF8LOPhTF82KZLXo9wo0-32" value="&lt;font face=&quot;monospace&quot; size=&quot;1&quot; color=&quot;#33001a&quot;&gt;Check-Point-Inbound-ASG-VPC&lt;br&gt;vpc-0d1908b8d2c999955&lt;br&gt;&lt;/font&gt;" style="text;html=1;resizable=0;autosize=1;align=center;verticalAlign=middle;points=[];fillColor=none;strokeColor=none;rounded=0;" vertex="1" parent="1">
          <mxGeometry x="35" y="595" width="160" height="30" as="geometry" />
        </mxCell>
        <mxCell id="OF8LOPhTF82KZLXo9wo0-33" value="&lt;font style=&quot;font-size: 10px&quot;&gt;&lt;b&gt;SECURITY&lt;/b&gt;&lt;/font&gt;" style="text;html=1;resizable=0;autosize=1;align=center;verticalAlign=middle;points=[];fillColor=none;strokeColor=none;rounded=0;rotation=270;" vertex="1" parent="1">
          <mxGeometry x="35" y="523.38" width="70" height="20" as="geometry" />
        </mxCell>
        <mxCell id="OF8LOPhTF82KZLXo9wo0-34" value="&lt;font&gt;&lt;span style=&quot;font-size: 10px&quot;&gt;MASTERADCONNECT&lt;/span&gt;&lt;br&gt;&lt;span style=&quot;font-size: 10px&quot;&gt;vpc-03bcd240bbd876d7f&lt;/span&gt;&lt;br&gt;&lt;/font&gt;" style="text;html=1;resizable=0;autosize=1;align=center;verticalAlign=middle;points=[];fillColor=none;strokeColor=none;rounded=0;" vertex="1" parent="1">
          <mxGeometry x="45" y="460" width="130" height="30" as="geometry" />
        </mxCell>
        <mxCell id="OF8LOPhTF82KZLXo9wo0-51" value="&lt;font style=&quot;font-size: 10px&quot;&gt;&lt;b&gt;AWS Master&lt;/b&gt;&lt;/font&gt;" style="text;html=1;resizable=0;autosize=1;align=center;verticalAlign=middle;points=[];fillColor=none;strokeColor=none;rounded=0;rotation=270;" vertex="1" parent="1">
          <mxGeometry x="-31" y="440" width="70" height="20" as="geometry" />
        </mxCell>
        <mxCell id="OF8LOPhTF82KZLXo9wo0-52" value="&lt;font&gt;&lt;span style=&quot;font-size: 10px&quot;&gt;vpc-ue1-p-bls-workspaces&lt;/span&gt;&lt;br&gt;&lt;span style=&quot;font-size: 10px&quot;&gt;vpc-0743ebb2342148f11&lt;/span&gt;&lt;br&gt;&lt;/font&gt;" style="text;html=1;resizable=0;autosize=1;align=center;verticalAlign=middle;points=[];fillColor=none;strokeColor=none;rounded=0;" vertex="1" parent="1">
          <mxGeometry x="52" y="317.5" width="130" height="30" as="geometry" />
        </mxCell>
        <mxCell id="OF8LOPhTF82KZLXo9wo0-53" value="&lt;font&gt;&lt;span style=&quot;font-size: 10px&quot;&gt;vpc-ue1-p-bls-chime&lt;/span&gt;&lt;br&gt;&lt;span style=&quot;font-size: 10px&quot;&gt;vpc-0c3e6383b9e1c9ff3&lt;/span&gt;&lt;br&gt;&lt;/font&gt;" style="text;html=1;resizable=0;autosize=1;align=center;verticalAlign=middle;points=[];fillColor=none;strokeColor=none;rounded=0;" vertex="1" parent="1">
          <mxGeometry x="59" y="160" width="120" height="30" as="geometry" />
        </mxCell>
        <mxCell id="OF8LOPhTF82KZLXo9wo0-54" value="&lt;font&gt;&lt;span style=&quot;font-size: 10px&quot;&gt;Production-us-east-1&lt;/span&gt;&lt;br&gt;&lt;span style=&quot;font-size: 10px&quot;&gt;vpc-0c1ac68e3ddde298a&lt;/span&gt;&lt;br&gt;&lt;/font&gt;" style="text;html=1;resizable=0;autosize=1;align=center;verticalAlign=middle;points=[];fillColor=none;strokeColor=none;rounded=0;" vertex="1" parent="1">
          <mxGeometry x="52" y="30" width="130" height="30" as="geometry" />
        </mxCell>
        <mxCell id="OF8LOPhTF82KZLXo9wo0-55" value="&lt;font&gt;&lt;span style=&quot;font-size: 10px&quot;&gt;Shared-Services-VPC&lt;/span&gt;&lt;br&gt;&lt;span style=&quot;font-size: 10px&quot;&gt;vpc-0306eec1f50e89a72&lt;/span&gt;&lt;br&gt;&lt;/font&gt;" style="text;html=1;resizable=0;autosize=1;align=center;verticalAlign=middle;points=[];fillColor=none;strokeColor=none;rounded=0;" vertex="1" parent="1">
          <mxGeometry x="55" y="-90" width="130" height="30" as="geometry" />
        </mxCell>
        <mxCell id="OF8LOPhTF82KZLXo9wo0-57" value="&lt;font&gt;&lt;span style=&quot;font-size: 10px&quot;&gt;vpc-01491e61b819398ef&lt;/span&gt;&lt;br&gt;&lt;/font&gt;" style="text;html=1;resizable=0;autosize=1;align=center;verticalAlign=middle;points=[];fillColor=none;strokeColor=none;rounded=0;" vertex="1" parent="1">
          <mxGeometry x="380" y="-135" width="130" height="20" as="geometry" />
        </mxCell>
        <mxCell id="OF8LOPhTF82KZLXo9wo0-60" value="&lt;span style=&quot;font-size: 10px&quot;&gt;&lt;b&gt;Bayview Loans&lt;br&gt;AWS Workspaces&lt;/b&gt;&lt;/span&gt;" style="text;html=1;resizable=0;autosize=1;align=center;verticalAlign=middle;points=[];fillColor=none;strokeColor=none;rounded=0;rotation=270;" vertex="1" parent="1">
          <mxGeometry x="-55" y="292.5" width="100" height="30" as="geometry" />
        </mxCell>
        <mxCell id="OF8LOPhTF82KZLXo9wo0-63" value="&lt;span style=&quot;font-size: 10px&quot;&gt;&lt;b&gt;Bayview Loans&lt;br&gt;Chime&lt;br&gt;&lt;/b&gt;&lt;/span&gt;" style="text;html=1;resizable=0;autosize=1;align=center;verticalAlign=middle;points=[];fillColor=none;strokeColor=none;rounded=0;rotation=270;" vertex="1" parent="1">
          <mxGeometry x="-50" y="140" width="90" height="30" as="geometry" />
        </mxCell>
        <mxCell id="OF8LOPhTF82KZLXo9wo0-65" value="&lt;b style=&quot;font-size: 10px&quot;&gt;Bayview Loans-&lt;/b&gt;&lt;span style=&quot;font-size: 10px&quot;&gt;&lt;b&gt;FileNet-Prod&lt;/b&gt;&lt;/span&gt;" style="text;html=1;resizable=0;autosize=1;align=center;verticalAlign=middle;points=[];fillColor=none;strokeColor=none;rounded=0;rotation=270;" vertex="1" parent="1">
          <mxGeometry x="-80" y="5" width="150" height="20" as="geometry" />
        </mxCell>
        <mxCell id="OF8LOPhTF82KZLXo9wo0-66" value="&lt;font&gt;&lt;span style=&quot;font-size: 10px&quot;&gt;Test-us-east-1&lt;/span&gt;&lt;br&gt;&lt;span style=&quot;font-size: 10px&quot;&gt;vpc-06029c59b96496835&lt;/span&gt;&lt;br&gt;&lt;/font&gt;" style="text;html=1;resizable=0;autosize=1;align=center;verticalAlign=middle;points=[];fillColor=none;strokeColor=none;rounded=0;" vertex="1" parent="1">
          <mxGeometry x="375" y="820" width="130" height="30" as="geometry" />
        </mxCell>
        <mxCell id="OF8LOPhTF82KZLXo9wo0-67" value="&lt;font&gt;&lt;span style=&quot;font-size: 10px&quot;&gt;Development-us-east-1&lt;/span&gt;&lt;br&gt;&lt;span style=&quot;font-size: 10px&quot;&gt;vpc-0ab86de6bd66b9321&lt;/span&gt;&lt;br&gt;&lt;/font&gt;" style="text;html=1;resizable=0;autosize=1;align=center;verticalAlign=middle;points=[];fillColor=none;strokeColor=none;rounded=0;" vertex="1" parent="1">
          <mxGeometry x="375" y="718" width="130" height="30" as="geometry" />
        </mxCell>
        <mxCell id="OF8LOPhTF82KZLXo9wo0-68" value="&lt;b style=&quot;font-size: 10px&quot;&gt;Bayview Loans-&lt;/b&gt;&lt;span style=&quot;font-size: 10px&quot;&gt;&lt;b&gt;FileNet-Staging&lt;/b&gt;&lt;/span&gt;" style="text;html=1;resizable=0;autosize=1;align=center;verticalAlign=middle;points=[];fillColor=none;strokeColor=none;rounded=0;rotation=270;" vertex="1" parent="1">
          <mxGeometry x="245" y="742.75" width="160" height="20" as="geometry" />
        </mxCell>
        <mxCell id="OF8LOPhTF82KZLXo9wo0-69" value="&lt;font&gt;&lt;span style=&quot;font-size: 10px&quot;&gt;CustRel-PRD&lt;/span&gt;&lt;br&gt;&lt;span style=&quot;font-size: 10px&quot;&gt;vpc-0352ee960d49ab8b2&lt;/span&gt;&lt;br&gt;&lt;/font&gt;" style="text;html=1;resizable=0;autosize=1;align=center;verticalAlign=middle;points=[];fillColor=none;strokeColor=none;rounded=0;" vertex="1" parent="1">
          <mxGeometry x="375" y="590" width="130" height="30" as="geometry" />
        </mxCell>
        <mxCell id="OF8LOPhTF82KZLXo9wo0-70" value="&lt;font&gt;&lt;span style=&quot;font-size: 10px&quot;&gt;CustRel-QA&lt;/span&gt;&lt;br&gt;&lt;span style=&quot;font-size: 10px&quot;&gt;vpc-00e7614485a10cdef&lt;/span&gt;&lt;br&gt;&lt;/font&gt;" style="text;html=1;resizable=0;autosize=1;align=center;verticalAlign=middle;points=[];fillColor=none;strokeColor=none;rounded=0;" vertex="1" parent="1">
          <mxGeometry x="380" y="460" width="130" height="30" as="geometry" />
        </mxCell>
        <mxCell id="OF8LOPhTF82KZLXo9wo0-72" value="&lt;span style=&quot;font-size: 10px&quot;&gt;&lt;b&gt;BLS-CustRelProd&lt;br&gt;&lt;/b&gt;&lt;/span&gt;" style="text;html=1;resizable=0;autosize=1;align=center;verticalAlign=middle;points=[];fillColor=none;strokeColor=none;rounded=0;rotation=270;" vertex="1" parent="1">
          <mxGeometry x="275" y="575" width="100" height="20" as="geometry" />
        </mxCell>
        <mxCell id="OF8LOPhTF82KZLXo9wo0-74" value="&lt;span style=&quot;font-size: 10px&quot;&gt;&lt;b&gt;BLS-CustRel-QA&lt;br&gt;&lt;/b&gt;&lt;/span&gt;" style="text;html=1;resizable=0;autosize=1;align=center;verticalAlign=middle;points=[];fillColor=none;strokeColor=none;rounded=0;rotation=270;" vertex="1" parent="1">
          <mxGeometry x="285" y="440" width="90" height="20" as="geometry" />
        </mxCell>
        <mxCell id="OF8LOPhTF82KZLXo9wo0-75" value="&lt;font&gt;&lt;span style=&quot;font-size: 10px&quot;&gt;CustRelStaging&lt;/span&gt;&lt;br&gt;&lt;span style=&quot;font-size: 10px&quot;&gt;vpc-02078256556bd628e&lt;/span&gt;&lt;br&gt;&lt;/font&gt;" style="text;html=1;resizable=0;autosize=1;align=center;verticalAlign=middle;points=[];fillColor=none;strokeColor=none;rounded=0;" vertex="1" parent="1">
          <mxGeometry x="380" y="337.5" width="130" height="30" as="geometry" />
        </mxCell>
        <mxCell id="OF8LOPhTF82KZLXo9wo0-77" value="&lt;span style=&quot;font-size: 10px&quot;&gt;&lt;b&gt;BLS-CustRel-STG&lt;br&gt;&lt;/b&gt;&lt;/span&gt;" style="text;html=1;resizable=0;autosize=1;align=center;verticalAlign=middle;points=[];fillColor=none;strokeColor=none;rounded=0;rotation=270;" vertex="1" parent="1">
          <mxGeometry x="280" y="317.5" width="100" height="20" as="geometry" />
        </mxCell>
        <mxCell id="OF8LOPhTF82KZLXo9wo0-78" value="&lt;font&gt;&lt;span style=&quot;font-size: 10px&quot;&gt;EOT-RPA-DEV-VPC&lt;/span&gt;&lt;br&gt;&lt;span style=&quot;font-size: 10px&quot;&gt;vpc-063f7b28d8402ea68&lt;/span&gt;&lt;br&gt;&lt;/font&gt;" style="text;html=1;resizable=0;autosize=1;align=center;verticalAlign=middle;points=[];fillColor=none;strokeColor=none;rounded=0;" vertex="1" parent="1">
          <mxGeometry x="370" y="220" width="130" height="30" as="geometry" />
        </mxCell>
        <mxCell id="OF8LOPhTF82KZLXo9wo0-80" value="&lt;span style=&quot;font-size: 10px&quot;&gt;&lt;b&gt;DEV-EOT&lt;br&gt;&lt;/b&gt;&lt;/span&gt;" style="text;html=1;resizable=0;autosize=1;align=center;verticalAlign=middle;points=[];fillColor=none;strokeColor=none;rounded=0;rotation=270;" vertex="1" parent="1">
          <mxGeometry x="300" y="201" width="60" height="20" as="geometry" />
        </mxCell>
        <mxCell id="OF8LOPhTF82KZLXo9wo0-81" value="&lt;font&gt;&lt;span style=&quot;font-size: 10px&quot;&gt;StorageGW&lt;/span&gt;&lt;br&gt;&lt;span style=&quot;font-size: 10px&quot;&gt;vpc-0a54ca8abf2bb22e0&lt;/span&gt;&lt;br&gt;&lt;/font&gt;" style="text;html=1;resizable=0;autosize=1;align=center;verticalAlign=middle;points=[];fillColor=none;strokeColor=none;rounded=0;" vertex="1" parent="1">
          <mxGeometry x="370" y="100" width="130" height="30" as="geometry" />
        </mxCell>
        <mxCell id="OF8LOPhTF82KZLXo9wo0-83" value="&lt;span style=&quot;font-size: 10px&quot;&gt;&lt;b&gt;Enterprise-Dev&lt;br&gt;&lt;/b&gt;&lt;/span&gt;" style="text;html=1;resizable=0;autosize=1;align=center;verticalAlign=middle;points=[];fillColor=none;strokeColor=none;rounded=0;rotation=270;" vertex="1" parent="1">
          <mxGeometry x="285" y="72.5" width="90" height="20" as="geometry" />
        </mxCell>
        <mxCell id="OF8LOPhTF82KZLXo9wo0-84" value="&lt;font&gt;&lt;span style=&quot;font-size: 10px&quot;&gt;ITSec_test_migration_Spoke&lt;/span&gt;&lt;br&gt;&lt;span style=&quot;font-size: 10px&quot;&gt;vpc-01d9c286a74b51318&lt;/span&gt;&lt;br&gt;&lt;/font&gt;" style="text;html=1;resizable=0;autosize=1;align=center;verticalAlign=middle;points=[];fillColor=none;strokeColor=none;rounded=0;" vertex="1" parent="1">
          <mxGeometry x="370" y="-20" width="140" height="30" as="geometry" />
        </mxCell>
        <mxCell id="OF8LOPhTF82KZLXo9wo0-86" value="&lt;span style=&quot;font-size: 10px&quot;&gt;&lt;b&gt;IT-Security-Dev&lt;br&gt;&lt;/b&gt;&lt;/span&gt;" style="text;html=1;resizable=0;autosize=1;align=center;verticalAlign=middle;points=[];fillColor=none;strokeColor=none;rounded=0;rotation=270;" vertex="1" parent="1">
          <mxGeometry x="285" y="-50" width="90" height="20" as="geometry" />
        </mxCell>
        <mxCell id="OF8LOPhTF82KZLXo9wo0-88" value="&lt;span style=&quot;font-size: 10px&quot;&gt;&lt;b&gt;Shared Service-Prod-BAM IT&lt;br&gt;&lt;/b&gt;&lt;/span&gt;" style="text;html=1;resizable=0;autosize=1;align=center;verticalAlign=middle;points=[];fillColor=none;strokeColor=none;rounded=0;rotation=270;" vertex="1" parent="1">
          <mxGeometry x="-75" y="-110" width="150" height="20" as="geometry" />
        </mxCell>
        <mxCell id="OF8LOPhTF82KZLXo9wo0-120" style="edgeStyle=orthogonalEdgeStyle;rounded=0;orthogonalLoop=1;jettySize=auto;html=1;startArrow=classic;startFill=1;endArrow=none;endFill=0;" edge="1" parent="1" source="OF8LOPhTF82KZLXo9wo0-106">
          <mxGeometry relative="1" as="geometry">
            <mxPoint x="790" y="703.0050000000001" as="targetPoint" />
          </mxGeometry>
        </mxCell>
        <mxCell id="OF8LOPhTF82KZLXo9wo0-106" value="" style="outlineConnect=0;dashed=0;verticalLabelPosition=bottom;verticalAlign=top;align=center;html=1;shape=mxgraph.aws3.vpn_gateway;fillColor=#F58536;gradientColor=none;strokeColor=#FFB570;" vertex="1" parent="1">
          <mxGeometry x="900" y="675.88" width="50" height="54.25" as="geometry" />
        </mxCell>
        <mxCell id="OF8LOPhTF82KZLXo9wo0-117" style="edgeStyle=orthogonalEdgeStyle;rounded=0;orthogonalLoop=1;jettySize=auto;html=1;entryX=1;entryY=0.5;entryDx=0;entryDy=0;entryPerimeter=0;startArrow=classic;startFill=1;endArrow=classic;endFill=1;" edge="1" parent="1" source="OF8LOPhTF82KZLXo9wo0-107" target="OF8LOPhTF82KZLXo9wo0-1">
          <mxGeometry relative="1" as="geometry" />
        </mxCell>
        <mxCell id="OF8LOPhTF82KZLXo9wo0-107" value="" style="outlineConnect=0;dashed=0;verticalLabelPosition=bottom;verticalAlign=top;align=center;html=1;shape=mxgraph.aws3.vpn_gateway;fillColor=#F58536;gradientColor=none;strokeColor=#FFB570;" vertex="1" parent="1">
          <mxGeometry x="900" y="420" width="50" height="54.25" as="geometry" />
        </mxCell>
        <mxCell id="OF8LOPhTF82KZLXo9wo0-118" style="edgeStyle=orthogonalEdgeStyle;rounded=0;orthogonalLoop=1;jettySize=auto;html=1;startArrow=classic;startFill=1;endArrow=none;endFill=0;" edge="1" parent="1" source="OF8LOPhTF82KZLXo9wo0-108">
          <mxGeometry relative="1" as="geometry">
            <mxPoint x="790" y="533.375" as="targetPoint" />
          </mxGeometry>
        </mxCell>
        <mxCell id="OF8LOPhTF82KZLXo9wo0-108" value="" style="outlineConnect=0;dashed=0;verticalLabelPosition=bottom;verticalAlign=top;align=center;html=1;shape=mxgraph.aws3.vpn_gateway;fillColor=#F58536;gradientColor=none;strokeColor=#FFB570;" vertex="1" parent="1">
          <mxGeometry x="900" y="506.25" width="50" height="54.25" as="geometry" />
        </mxCell>
        <mxCell id="OF8LOPhTF82KZLXo9wo0-119" style="edgeStyle=orthogonalEdgeStyle;rounded=0;orthogonalLoop=1;jettySize=auto;html=1;startArrow=classic;startFill=1;endArrow=none;endFill=0;" edge="1" parent="1" source="OF8LOPhTF82KZLXo9wo0-109">
          <mxGeometry relative="1" as="geometry">
            <mxPoint x="790" y="622.125" as="targetPoint" />
          </mxGeometry>
        </mxCell>
        <mxCell id="OF8LOPhTF82KZLXo9wo0-109" value="" style="outlineConnect=0;dashed=0;verticalLabelPosition=bottom;verticalAlign=top;align=center;html=1;shape=mxgraph.aws3.vpn_gateway;fillColor=#F58536;gradientColor=none;strokeColor=#FFB570;" vertex="1" parent="1">
          <mxGeometry x="900" y="595" width="50" height="54.25" as="geometry" />
        </mxCell>
        <mxCell id="OF8LOPhTF82KZLXo9wo0-121" style="edgeStyle=orthogonalEdgeStyle;rounded=0;orthogonalLoop=1;jettySize=auto;html=1;startArrow=classic;startFill=1;endArrow=none;endFill=0;" edge="1" parent="1" source="OF8LOPhTF82KZLXo9wo0-110">
          <mxGeometry relative="1" as="geometry">
            <mxPoint x="790" y="782.875" as="targetPoint" />
          </mxGeometry>
        </mxCell>
        <mxCell id="OF8LOPhTF82KZLXo9wo0-110" value="" style="outlineConnect=0;dashed=0;verticalLabelPosition=bottom;verticalAlign=top;align=center;html=1;shape=mxgraph.aws3.vpn_gateway;fillColor=#F58536;gradientColor=none;strokeColor=#FFB570;" vertex="1" parent="1">
          <mxGeometry x="900" y="755.75" width="50" height="54.25" as="geometry" />
        </mxCell>
        <mxCell id="OF8LOPhTF82KZLXo9wo0-112" value="&lt;font style=&quot;font-size: 10px&quot;&gt;vpn-02924140e421e4e36&lt;/font&gt;" style="text;html=1;resizable=0;autosize=1;align=center;verticalAlign=middle;points=[];fillColor=none;strokeColor=none;rounded=0;dashed=1;" vertex="1" parent="1">
          <mxGeometry x="875" y="810" width="130" height="20" as="geometry" />
        </mxCell>
        <mxCell id="OF8LOPhTF82KZLXo9wo0-113" value="&lt;font style=&quot;font-size: 10px&quot;&gt;vpn-0a087e3098fb57cad&lt;/font&gt;" style="text;html=1;resizable=0;autosize=1;align=center;verticalAlign=middle;points=[];fillColor=none;strokeColor=none;rounded=0;dashed=1;" vertex="1" parent="1">
          <mxGeometry x="870" y="474.25" width="130" height="20" as="geometry" />
        </mxCell>
        <mxCell id="OF8LOPhTF82KZLXo9wo0-114" value="&lt;font style=&quot;font-size: 10px&quot;&gt;vpn-0825b191a21ea036f&lt;/font&gt;" style="text;html=1;resizable=0;autosize=1;align=center;verticalAlign=middle;points=[];fillColor=none;strokeColor=none;rounded=0;dashed=1;" vertex="1" parent="1">
          <mxGeometry x="875" y="645.5" width="130" height="20" as="geometry" />
        </mxCell>
        <mxCell id="OF8LOPhTF82KZLXo9wo0-115" value="&lt;font style=&quot;font-size: 10px&quot;&gt;vpn-09697c874331fec58&lt;/font&gt;" style="text;html=1;resizable=0;autosize=1;align=center;verticalAlign=middle;points=[];fillColor=none;strokeColor=none;rounded=0;dashed=1;" vertex="1" parent="1">
          <mxGeometry x="870" y="728" width="130" height="20" as="geometry" />
        </mxCell>
        <mxCell id="OF8LOPhTF82KZLXo9wo0-116" value="&lt;font style=&quot;font-size: 10px&quot;&gt;vpn-00a4b36839a454af5&lt;/font&gt;" style="text;html=1;resizable=0;autosize=1;align=center;verticalAlign=middle;points=[];fillColor=none;strokeColor=none;rounded=0;dashed=1;" vertex="1" parent="1">
          <mxGeometry x="875" y="560.5" width="130" height="20" as="geometry" />
        </mxCell>
        <mxCell id="OF8LOPhTF82KZLXo9wo0-122" value="" style="outlineConnect=0;dashed=0;verticalLabelPosition=bottom;verticalAlign=top;align=center;html=1;shape=mxgraph.aws3.direct_connect;fillColor=#F58536;gradientColor=none;strokeColor=#FFB570;" vertex="1" parent="1">
          <mxGeometry x="616.63" y="1040" width="44.75" height="50" as="geometry" />
        </mxCell>
        <mxCell id="OF8LOPhTF82KZLXo9wo0-133" style="edgeStyle=orthogonalEdgeStyle;rounded=0;orthogonalLoop=1;jettySize=auto;html=1;entryX=1;entryY=0.5;entryDx=0;entryDy=0;entryPerimeter=0;startArrow=classic;startFill=1;endArrow=classic;endFill=1;" edge="1" parent="1" source="OF8LOPhTF82KZLXo9wo0-125" target="OF8LOPhTF82KZLXo9wo0-122">
          <mxGeometry relative="1" as="geometry" />
        </mxCell>
        <mxCell id="OF8LOPhTF82KZLXo9wo0-125" value="On-Premise" style="outlineConnect=0;gradientColor=none;html=1;whiteSpace=wrap;fontSize=12;fontStyle=0;shape=mxgraph.aws4.group;grIcon=mxgraph.aws4.group_on_premise;strokeColor=#858B94;fillColor=none;verticalAlign=top;align=left;spacingLeft=30;fontColor=#858B94;dashed=0;" vertex="1" parent="1">
          <mxGeometry x="890" y="1000" width="130" height="130" as="geometry" />
        </mxCell>
        <mxCell id="OF8LOPhTF82KZLXo9wo0-127" value="&lt;font style=&quot;font-size: 10px&quot;&gt;9caf4447-8fbd-4d5f-b3ea-b6cba6add73d&lt;/font&gt;" style="text;html=1;resizable=0;autosize=1;align=center;verticalAlign=middle;points=[];fillColor=none;strokeColor=none;rounded=0;" vertex="1" parent="1">
          <mxGeometry x="550" y="1095" width="200" height="20" as="geometry" />
        </mxCell>
        <mxCell id="OF8LOPhTF82KZLXo9wo0-128" value="" style="points=[[0,0,0],[0.25,0,0],[0.5,0,0],[0.75,0,0],[1,0,0],[0,1,0],[0.25,1,0],[0.5,1,0],[0.75,1,0],[1,1,0],[0,0.25,0],[0,0.5,0],[0,0.75,0],[1,0.25,0],[1,0.5,0],[1,0.75,0]];outlineConnect=0;fontColor=#232F3E;gradientColor=#945DF2;gradientDirection=north;fillColor=#5A30B5;strokeColor=#ffffff;dashed=0;verticalLabelPosition=bottom;verticalAlign=top;align=center;html=1;fontSize=12;fontStyle=0;aspect=fixed;shape=mxgraph.aws4.resourceIcon;resIcon=mxgraph.aws4.transit_gateway;" vertex="1" parent="1">
          <mxGeometry x="202" y="950" width="60" height="60" as="geometry" />
        </mxCell>
        <mxCell id="OF8LOPhTF82KZLXo9wo0-131" value="&lt;font style=&quot;font-size: 10px&quot;&gt;tgw-07e2898ff58f9b5e0&lt;/font&gt;" style="text;html=1;resizable=0;autosize=1;align=center;verticalAlign=middle;points=[];fillColor=none;strokeColor=none;rounded=0;" vertex="1" parent="1">
          <mxGeometry x="120" y="930" width="120" height="20" as="geometry" />
        </mxCell>
        <mxCell id="OF8LOPhTF82KZLXo9wo0-132" value="&lt;font style=&quot;font-size: 10px&quot;&gt;Direct Connect Gateway&lt;/font&gt;" style="text;html=1;resizable=0;autosize=1;align=center;verticalAlign=middle;points=[];fillColor=none;strokeColor=none;rounded=0;" vertex="1" parent="1">
          <mxGeometry x="590" y="1110" width="120" height="20" as="geometry" />
        </mxCell>
        <mxCell id="OF8LOPhTF82KZLXo9wo0-199" style="edgeStyle=orthogonalEdgeStyle;rounded=0;orthogonalLoop=1;jettySize=auto;html=1;entryX=0.5;entryY=0;entryDx=0;entryDy=0;entryPerimeter=0;startArrow=classic;startFill=1;endArrow=classic;endFill=1;" edge="1" parent="1" source="OF8LOPhTF82KZLXo9wo0-153" target="OF8LOPhTF82KZLXo9wo0-190">
          <mxGeometry relative="1" as="geometry">
            <Array as="points">
              <mxPoint x="-815" y="920" />
              <mxPoint x="-370" y="920" />
            </Array>
          </mxGeometry>
        </mxCell>
        <mxCell id="OF8LOPhTF82KZLXo9wo0-153" value="" style="points=[[0,0,0],[0.25,0,0],[0.5,0,0],[0.75,0,0],[1,0,0],[0,1,0],[0.25,1,0],[0.5,1,0],[0.75,1,0],[1,1,0],[0,0.25,0],[0,0.5,0],[0,0.75,0],[1,0.25,0],[1,0.5,0],[1,0.75,0]];outlineConnect=0;fontColor=#232F3E;gradientColor=#945DF2;gradientDirection=north;fillColor=#5A30B5;strokeColor=#ffffff;dashed=0;verticalLabelPosition=bottom;verticalAlign=top;align=center;html=1;fontSize=12;fontStyle=0;aspect=fixed;shape=mxgraph.aws4.resourceIcon;resIcon=mxgraph.aws4.vpc;" vertex="1" parent="1">
          <mxGeometry x="-840" y="718" width="49.87" height="49.87" as="geometry" />
        </mxCell>
        <mxCell id="OF8LOPhTF82KZLXo9wo0-211" style="edgeStyle=orthogonalEdgeStyle;rounded=0;orthogonalLoop=1;jettySize=auto;html=1;startArrow=classic;startFill=1;endArrow=none;endFill=0;" edge="1" parent="1" source="OF8LOPhTF82KZLXo9wo0-156">
          <mxGeometry relative="1" as="geometry">
            <mxPoint x="-605.065" y="800" as="targetPoint" />
          </mxGeometry>
        </mxCell>
        <mxCell id="OF8LOPhTF82KZLXo9wo0-156" value="" style="points=[[0,0,0],[0.25,0,0],[0.5,0,0],[0.75,0,0],[1,0,0],[0,1,0],[0.25,1,0],[0.5,1,0],[0.75,1,0],[1,1,0],[0,0.25,0],[0,0.5,0],[0,0.75,0],[1,0.25,0],[1,0.5,0],[1,0.75,0]];outlineConnect=0;fontColor=#232F3E;gradientColor=#945DF2;gradientDirection=north;fillColor=#5A30B5;strokeColor=#ffffff;dashed=0;verticalLabelPosition=bottom;verticalAlign=top;align=center;html=1;fontSize=12;fontStyle=0;aspect=fixed;shape=mxgraph.aws4.resourceIcon;resIcon=mxgraph.aws4.vpc;" vertex="1" parent="1">
          <mxGeometry x="-630" y="718" width="49.87" height="49.87" as="geometry" />
        </mxCell>
        <mxCell id="OF8LOPhTF82KZLXo9wo0-205" style="edgeStyle=orthogonalEdgeStyle;rounded=0;orthogonalLoop=1;jettySize=auto;html=1;exitX=0.5;exitY=1;exitDx=0;exitDy=0;exitPerimeter=0;entryX=0.5;entryY=0;entryDx=0;entryDy=0;entryPerimeter=0;startArrow=classic;startFill=1;endArrow=classic;endFill=1;" edge="1" parent="1" source="OF8LOPhTF82KZLXo9wo0-157" target="OF8LOPhTF82KZLXo9wo0-190">
          <mxGeometry relative="1" as="geometry">
            <Array as="points">
              <mxPoint x="-715" y="800" />
              <mxPoint x="-270" y="800" />
              <mxPoint x="-270" y="920" />
              <mxPoint x="-370" y="920" />
            </Array>
          </mxGeometry>
        </mxCell>
        <mxCell id="OF8LOPhTF82KZLXo9wo0-157" value="" style="points=[[0,0,0],[0.25,0,0],[0.5,0,0],[0.75,0,0],[1,0,0],[0,1,0],[0.25,1,0],[0.5,1,0],[0.75,1,0],[1,1,0],[0,0.25,0],[0,0.5,0],[0,0.75,0],[1,0.25,0],[1,0.5,0],[1,0.75,0]];outlineConnect=0;fontColor=#232F3E;gradientColor=#945DF2;gradientDirection=north;fillColor=#5A30B5;strokeColor=#ffffff;dashed=0;verticalLabelPosition=bottom;verticalAlign=top;align=center;html=1;fontSize=12;fontStyle=0;aspect=fixed;shape=mxgraph.aws4.resourceIcon;resIcon=mxgraph.aws4.vpc;" vertex="1" parent="1">
          <mxGeometry x="-740.26" y="717.88" width="49.87" height="49.87" as="geometry" />
        </mxCell>
        <mxCell id="OF8LOPhTF82KZLXo9wo0-203" style="edgeStyle=orthogonalEdgeStyle;rounded=0;orthogonalLoop=1;jettySize=auto;html=1;entryX=0.5;entryY=0;entryDx=0;entryDy=0;entryPerimeter=0;startArrow=classic;startFill=1;endArrow=classic;endFill=1;" edge="1" parent="1" source="OF8LOPhTF82KZLXo9wo0-158" target="OF8LOPhTF82KZLXo9wo0-190">
          <mxGeometry relative="1" as="geometry">
            <Array as="points">
              <mxPoint x="-270" y="920" />
              <mxPoint x="-370" y="920" />
            </Array>
          </mxGeometry>
        </mxCell>
        <mxCell id="OF8LOPhTF82KZLXo9wo0-158" value="" style="points=[[0,0,0],[0.25,0,0],[0.5,0,0],[0.75,0,0],[1,0,0],[0,1,0],[0.25,1,0],[0.5,1,0],[0.75,1,0],[1,1,0],[0,0.25,0],[0,0.5,0],[0,0.75,0],[1,0.25,0],[1,0.5,0],[1,0.75,0]];outlineConnect=0;fontColor=#232F3E;gradientColor=#945DF2;gradientDirection=north;fillColor=#5A30B5;strokeColor=#ffffff;dashed=0;verticalLabelPosition=bottom;verticalAlign=top;align=center;html=1;fontSize=12;fontStyle=0;aspect=fixed;shape=mxgraph.aws4.resourceIcon;resIcon=mxgraph.aws4.vpc;" vertex="1" parent="1">
          <mxGeometry x="-300" y="717.88" width="49.87" height="49.87" as="geometry" />
        </mxCell>
        <mxCell id="OF8LOPhTF82KZLXo9wo0-209" style="edgeStyle=orthogonalEdgeStyle;rounded=0;orthogonalLoop=1;jettySize=auto;html=1;exitX=0.5;exitY=1;exitDx=0;exitDy=0;exitPerimeter=0;startArrow=classic;startFill=1;endArrow=none;endFill=0;" edge="1" parent="1" source="OF8LOPhTF82KZLXo9wo0-159">
          <mxGeometry relative="1" as="geometry">
            <mxPoint x="-385" y="800" as="targetPoint" />
          </mxGeometry>
        </mxCell>
        <mxCell id="OF8LOPhTF82KZLXo9wo0-159" value="" style="points=[[0,0,0],[0.25,0,0],[0.5,0,0],[0.75,0,0],[1,0,0],[0,1,0],[0.25,1,0],[0.5,1,0],[0.75,1,0],[1,1,0],[0,0.25,0],[0,0.5,0],[0,0.75,0],[1,0.25,0],[1,0.5,0],[1,0.75,0]];outlineConnect=0;fontColor=#232F3E;gradientColor=#945DF2;gradientDirection=north;fillColor=#5A30B5;strokeColor=#ffffff;dashed=0;verticalLabelPosition=bottom;verticalAlign=top;align=center;html=1;fontSize=12;fontStyle=0;aspect=fixed;shape=mxgraph.aws4.resourceIcon;resIcon=mxgraph.aws4.vpc;" vertex="1" parent="1">
          <mxGeometry x="-410" y="718" width="49.87" height="49.87" as="geometry" />
        </mxCell>
        <mxCell id="OF8LOPhTF82KZLXo9wo0-210" style="edgeStyle=orthogonalEdgeStyle;rounded=0;orthogonalLoop=1;jettySize=auto;html=1;startArrow=classic;startFill=1;endArrow=none;endFill=0;" edge="1" parent="1" source="OF8LOPhTF82KZLXo9wo0-160">
          <mxGeometry relative="1" as="geometry">
            <mxPoint x="-495.06500000000005" y="800" as="targetPoint" />
          </mxGeometry>
        </mxCell>
        <mxCell id="OF8LOPhTF82KZLXo9wo0-160" value="" style="points=[[0,0,0],[0.25,0,0],[0.5,0,0],[0.75,0,0],[1,0,0],[0,1,0],[0.25,1,0],[0.5,1,0],[0.75,1,0],[1,1,0],[0,0.25,0],[0,0.5,0],[0,0.75,0],[1,0.25,0],[1,0.5,0],[1,0.75,0]];outlineConnect=0;fontColor=#232F3E;gradientColor=#945DF2;gradientDirection=north;fillColor=#5A30B5;strokeColor=#ffffff;dashed=0;verticalLabelPosition=bottom;verticalAlign=top;align=center;html=1;fontSize=12;fontStyle=0;aspect=fixed;shape=mxgraph.aws4.resourceIcon;resIcon=mxgraph.aws4.vpc;" vertex="1" parent="1">
          <mxGeometry x="-520" y="718" width="49.87" height="49.87" as="geometry" />
        </mxCell>
        <mxCell id="OF8LOPhTF82KZLXo9wo0-200" style="edgeStyle=orthogonalEdgeStyle;rounded=0;orthogonalLoop=1;jettySize=auto;html=1;startArrow=classic;startFill=1;endArrow=none;endFill=0;" edge="1" parent="1" source="OF8LOPhTF82KZLXo9wo0-162">
          <mxGeometry relative="1" as="geometry">
            <mxPoint x="-765.1950000000002" y="920" as="targetPoint" />
          </mxGeometry>
        </mxCell>
        <mxCell id="OF8LOPhTF82KZLXo9wo0-162" value="" style="points=[[0,0,0],[0.25,0,0],[0.5,0,0],[0.75,0,0],[1,0,0],[0,1,0],[0.25,1,0],[0.5,1,0],[0.75,1,0],[1,1,0],[0,0.25,0],[0,0.5,0],[0,0.75,0],[1,0.25,0],[1,0.5,0],[1,0.75,0]];outlineConnect=0;fontColor=#232F3E;gradientColor=#945DF2;gradientDirection=north;fillColor=#5A30B5;strokeColor=#ffffff;dashed=0;verticalLabelPosition=bottom;verticalAlign=top;align=center;html=1;fontSize=12;fontStyle=0;aspect=fixed;shape=mxgraph.aws4.resourceIcon;resIcon=mxgraph.aws4.vpc;" vertex="1" parent="1">
          <mxGeometry x="-790.13" y="840.13" width="49.87" height="49.87" as="geometry" />
        </mxCell>
        <mxCell id="OF8LOPhTF82KZLXo9wo0-201" style="edgeStyle=orthogonalEdgeStyle;rounded=0;orthogonalLoop=1;jettySize=auto;html=1;exitX=0.5;exitY=1;exitDx=0;exitDy=0;exitPerimeter=0;startArrow=classic;startFill=1;endArrow=none;endFill=0;" edge="1" parent="1" source="OF8LOPhTF82KZLXo9wo0-163">
          <mxGeometry relative="1" as="geometry">
            <mxPoint x="-655" y="920" as="targetPoint" />
          </mxGeometry>
        </mxCell>
        <mxCell id="OF8LOPhTF82KZLXo9wo0-163" value="" style="points=[[0,0,0],[0.25,0,0],[0.5,0,0],[0.75,0,0],[1,0,0],[0,1,0],[0.25,1,0],[0.5,1,0],[0.75,1,0],[1,1,0],[0,0.25,0],[0,0.5,0],[0,0.75,0],[1,0.25,0],[1,0.5,0],[1,0.75,0]];outlineConnect=0;fontColor=#232F3E;gradientColor=#945DF2;gradientDirection=north;fillColor=#5A30B5;strokeColor=#ffffff;dashed=0;verticalLabelPosition=bottom;verticalAlign=top;align=center;html=1;fontSize=12;fontStyle=0;aspect=fixed;shape=mxgraph.aws4.resourceIcon;resIcon=mxgraph.aws4.vpc;" vertex="1" parent="1">
          <mxGeometry x="-679.87" y="840.13" width="49.87" height="49.87" as="geometry" />
        </mxCell>
        <mxCell id="OF8LOPhTF82KZLXo9wo0-206" style="edgeStyle=orthogonalEdgeStyle;rounded=0;orthogonalLoop=1;jettySize=auto;html=1;exitX=0.5;exitY=1;exitDx=0;exitDy=0;exitPerimeter=0;startArrow=classic;startFill=1;endArrow=none;endFill=0;" edge="1" parent="1" source="OF8LOPhTF82KZLXo9wo0-164">
          <mxGeometry relative="1" as="geometry">
            <mxPoint x="-555" y="920" as="targetPoint" />
          </mxGeometry>
        </mxCell>
        <mxCell id="OF8LOPhTF82KZLXo9wo0-164" value="" style="points=[[0,0,0],[0.25,0,0],[0.5,0,0],[0.75,0,0],[1,0,0],[0,1,0],[0.25,1,0],[0.5,1,0],[0.75,1,0],[1,1,0],[0,0.25,0],[0,0.5,0],[0,0.75,0],[1,0.25,0],[1,0.5,0],[1,0.75,0]];outlineConnect=0;fontColor=#232F3E;gradientColor=#945DF2;gradientDirection=north;fillColor=#5A30B5;strokeColor=#ffffff;dashed=0;verticalLabelPosition=bottom;verticalAlign=top;align=center;html=1;fontSize=12;fontStyle=0;aspect=fixed;shape=mxgraph.aws4.resourceIcon;resIcon=mxgraph.aws4.vpc;" vertex="1" parent="1">
          <mxGeometry x="-580.13" y="840.13" width="49.87" height="49.87" as="geometry" />
        </mxCell>
        <mxCell id="OF8LOPhTF82KZLXo9wo0-207" style="edgeStyle=orthogonalEdgeStyle;rounded=0;orthogonalLoop=1;jettySize=auto;html=1;startArrow=classic;startFill=1;endArrow=none;endFill=0;" edge="1" parent="1" source="OF8LOPhTF82KZLXo9wo0-165">
          <mxGeometry relative="1" as="geometry">
            <mxPoint x="-445.19500000000016" y="920" as="targetPoint" />
          </mxGeometry>
        </mxCell>
        <mxCell id="OF8LOPhTF82KZLXo9wo0-165" value="" style="points=[[0,0,0],[0.25,0,0],[0.5,0,0],[0.75,0,0],[1,0,0],[0,1,0],[0.25,1,0],[0.5,1,0],[0.75,1,0],[1,1,0],[0,0.25,0],[0,0.5,0],[0,0.75,0],[1,0.25,0],[1,0.5,0],[1,0.75,0]];outlineConnect=0;fontColor=#232F3E;gradientColor=#945DF2;gradientDirection=north;fillColor=#5A30B5;strokeColor=#ffffff;dashed=0;verticalLabelPosition=bottom;verticalAlign=top;align=center;html=1;fontSize=12;fontStyle=0;aspect=fixed;shape=mxgraph.aws4.resourceIcon;resIcon=mxgraph.aws4.vpc;" vertex="1" parent="1">
          <mxGeometry x="-470.13" y="840.13" width="49.87" height="49.87" as="geometry" />
        </mxCell>
        <mxCell id="OF8LOPhTF82KZLXo9wo0-208" style="edgeStyle=orthogonalEdgeStyle;rounded=0;orthogonalLoop=1;jettySize=auto;html=1;exitX=0.5;exitY=1;exitDx=0;exitDy=0;exitPerimeter=0;startArrow=classic;startFill=1;endArrow=none;endFill=0;" edge="1" parent="1" source="OF8LOPhTF82KZLXo9wo0-166">
          <mxGeometry relative="1" as="geometry">
            <mxPoint x="-335" y="920" as="targetPoint" />
          </mxGeometry>
        </mxCell>
        <mxCell id="OF8LOPhTF82KZLXo9wo0-166" value="" style="points=[[0,0,0],[0.25,0,0],[0.5,0,0],[0.75,0,0],[1,0,0],[0,1,0],[0.25,1,0],[0.5,1,0],[0.75,1,0],[1,1,0],[0,0.25,0],[0,0.5,0],[0,0.75,0],[1,0.25,0],[1,0.5,0],[1,0.75,0]];outlineConnect=0;fontColor=#232F3E;gradientColor=#945DF2;gradientDirection=north;fillColor=#5A30B5;strokeColor=#ffffff;dashed=0;verticalLabelPosition=bottom;verticalAlign=top;align=center;html=1;fontSize=12;fontStyle=0;aspect=fixed;shape=mxgraph.aws4.resourceIcon;resIcon=mxgraph.aws4.vpc;" vertex="1" parent="1">
          <mxGeometry x="-360.13" y="840.13" width="49.87" height="49.87" as="geometry" />
        </mxCell>
        <mxCell id="OF8LOPhTF82KZLXo9wo0-213" style="edgeStyle=orthogonalEdgeStyle;rounded=0;orthogonalLoop=1;jettySize=auto;html=1;entryX=0;entryY=0.5;entryDx=0;entryDy=0;entryPerimeter=0;startArrow=classic;startFill=1;endArrow=none;endFill=0;" edge="1" parent="1" source="OF8LOPhTF82KZLXo9wo0-167" target="OF8LOPhTF82KZLXo9wo0-190">
          <mxGeometry relative="1" as="geometry">
            <Array as="points">
              <mxPoint x="-815" y="1020" />
            </Array>
          </mxGeometry>
        </mxCell>
        <mxCell id="OF8LOPhTF82KZLXo9wo0-167" value="" style="points=[[0,0,0],[0.25,0,0],[0.5,0,0],[0.75,0,0],[1,0,0],[0,1,0],[0.25,1,0],[0.5,1,0],[0.75,1,0],[1,1,0],[0,0.25,0],[0,0.5,0],[0,0.75,0],[1,0.25,0],[1,0.5,0],[1,0.75,0]];outlineConnect=0;fontColor=#232F3E;gradientColor=#945DF2;gradientDirection=north;fillColor=#5A30B5;strokeColor=#ffffff;dashed=0;verticalLabelPosition=bottom;verticalAlign=top;align=center;html=1;fontSize=12;fontStyle=0;aspect=fixed;shape=mxgraph.aws4.resourceIcon;resIcon=mxgraph.aws4.vpc;" vertex="1" parent="1">
          <mxGeometry x="-840" y="958" width="49.87" height="49.87" as="geometry" />
        </mxCell>
        <mxCell id="OF8LOPhTF82KZLXo9wo0-216" style="edgeStyle=orthogonalEdgeStyle;rounded=0;orthogonalLoop=1;jettySize=auto;html=1;entryX=0;entryY=0.5;entryDx=0;entryDy=0;entryPerimeter=0;startArrow=classic;startFill=1;endArrow=classic;endFill=1;" edge="1" parent="1" source="OF8LOPhTF82KZLXo9wo0-168" target="OF8LOPhTF82KZLXo9wo0-190">
          <mxGeometry relative="1" as="geometry">
            <Array as="points">
              <mxPoint x="-815" y="1140" />
              <mxPoint x="-480" y="1140" />
              <mxPoint x="-480" y="1020" />
            </Array>
          </mxGeometry>
        </mxCell>
        <mxCell id="OF8LOPhTF82KZLXo9wo0-168" value="" style="points=[[0,0,0],[0.25,0,0],[0.5,0,0],[0.75,0,0],[1,0,0],[0,1,0],[0.25,1,0],[0.5,1,0],[0.75,1,0],[1,1,0],[0,0.25,0],[0,0.5,0],[0,0.75,0],[1,0.25,0],[1,0.5,0],[1,0.75,0]];outlineConnect=0;fontColor=#232F3E;gradientColor=#945DF2;gradientDirection=north;fillColor=#5A30B5;strokeColor=#ffffff;dashed=0;verticalLabelPosition=bottom;verticalAlign=top;align=center;html=1;fontSize=12;fontStyle=0;aspect=fixed;shape=mxgraph.aws4.resourceIcon;resIcon=mxgraph.aws4.vpc;" vertex="1" parent="1">
          <mxGeometry x="-840" y="1060.13" width="49.87" height="49.87" as="geometry" />
        </mxCell>
        <mxCell id="OF8LOPhTF82KZLXo9wo0-172" value="&lt;b&gt;&lt;font color=&quot;#000099&quot;&gt;VPC-A&lt;/font&gt;&lt;/b&gt;" style="text;html=1;resizable=0;autosize=1;align=center;verticalAlign=middle;points=[];fillColor=none;strokeColor=none;rounded=0;dashed=1;" vertex="1" parent="1">
          <mxGeometry x="-840" y="698" width="50" height="20" as="geometry" />
        </mxCell>
        <mxCell id="OF8LOPhTF82KZLXo9wo0-175" value="&lt;b&gt;&lt;font color=&quot;#000099&quot;&gt;VPC-R&lt;/font&gt;&lt;/b&gt;" style="text;html=1;resizable=0;autosize=1;align=center;verticalAlign=middle;points=[];fillColor=none;strokeColor=none;rounded=0;dashed=1;" vertex="1" parent="1">
          <mxGeometry x="-40.13" y="494.2499999999999" width="50" height="20" as="geometry" />
        </mxCell>
        <mxCell id="OF8LOPhTF82KZLXo9wo0-176" value="&lt;b&gt;&lt;font color=&quot;#000099&quot;&gt;VPC-B&lt;/font&gt;&lt;/b&gt;&lt;span style=&quot;color: rgba(0 , 0 , 0 , 0) ; font-family: monospace ; font-size: 0px&quot;&gt;%3CmxGraphModel%3E%3Croot%3E%3CmxCell%20id%3D%220%22%2F%3E%3CmxCell%20id%3D%221%22%20parent%3D%220%22%2F%3E%3CmxCell%20id%3D%222%22%20value%3D%22%26lt%3Bb%26gt%3B%26lt%3Bfont%20color%3D%26quot%3B%23000099%26quot%3B%26gt%3BVPC-A%26lt%3B%2Ffont%26gt%3B%26lt%3B%2Fb%26gt%3B%22%20style%3D%22text%3Bhtml%3D1%3Bresizable%3D0%3Bautosize%3D1%3Balign%3Dcenter%3BverticalAlign%3Dmiddle%3Bpoints%3D%5B%5D%3BfillColor%3Dnone%3BstrokeColor%3Dnone%3Brounded%3D0%3Bdashed%3D1%3B%22%20vertex%3D%221%22%20parent%3D%221%22%3E%3CmxGeometry%20x%3D%22-840%22%20y%3D%22698%22%20width%3D%2250%22%20height%3D%2220%22%20as%3D%22geometry%22%2F%3E%3C%2FmxCell%3E%3C%2Froot%3E%3C%2FmxGraphModel%3E&lt;/span&gt;" style="text;html=1;resizable=0;autosize=1;align=center;verticalAlign=middle;points=[];fillColor=none;strokeColor=none;rounded=0;dashed=1;" vertex="1" parent="1">
          <mxGeometry x="-740.39" y="698" width="50" height="20" as="geometry" />
        </mxCell>
        <mxCell id="OF8LOPhTF82KZLXo9wo0-177" value="&lt;b&gt;&lt;font color=&quot;#000099&quot;&gt;VPC-C&lt;/font&gt;&lt;/b&gt;" style="text;html=1;resizable=0;autosize=1;align=center;verticalAlign=middle;points=[];fillColor=none;strokeColor=none;rounded=0;dashed=1;" vertex="1" parent="1">
          <mxGeometry x="-630.13" y="697.88" width="50" height="20" as="geometry" />
        </mxCell>
        <mxCell id="OF8LOPhTF82KZLXo9wo0-178" value="&lt;b&gt;&lt;font color=&quot;#000099&quot;&gt;VPC-D&lt;/font&gt;&lt;/b&gt;" style="text;html=1;resizable=0;autosize=1;align=center;verticalAlign=middle;points=[];fillColor=none;strokeColor=none;rounded=0;dashed=1;" vertex="1" parent="1">
          <mxGeometry x="-520.13" y="698" width="50" height="20" as="geometry" />
        </mxCell>
        <mxCell id="OF8LOPhTF82KZLXo9wo0-179" value="&lt;b&gt;&lt;font color=&quot;#000099&quot;&gt;VPC-G&lt;/font&gt;&lt;/b&gt;" style="text;html=1;resizable=0;autosize=1;align=center;verticalAlign=middle;points=[];fillColor=none;strokeColor=none;rounded=0;dashed=1;" vertex="1" parent="1">
          <mxGeometry x="-790" y="820" width="50" height="20" as="geometry" />
        </mxCell>
        <mxCell id="OF8LOPhTF82KZLXo9wo0-180" value="&lt;b&gt;&lt;font color=&quot;#000099&quot;&gt;VPC-F&lt;/font&gt;&lt;/b&gt;" style="text;html=1;resizable=0;autosize=1;align=center;verticalAlign=middle;points=[];fillColor=none;strokeColor=none;rounded=0;dashed=1;" vertex="1" parent="1">
          <mxGeometry x="-300.13" y="698" width="50" height="20" as="geometry" />
        </mxCell>
        <mxCell id="OF8LOPhTF82KZLXo9wo0-181" value="&lt;b&gt;&lt;font color=&quot;#000099&quot;&gt;VPC-E&lt;/font&gt;&lt;/b&gt;" style="text;html=1;resizable=0;autosize=1;align=center;verticalAlign=middle;points=[];fillColor=none;strokeColor=none;rounded=0;dashed=1;" vertex="1" parent="1">
          <mxGeometry x="-410.07" y="698" width="50" height="20" as="geometry" />
        </mxCell>
        <mxCell id="OF8LOPhTF82KZLXo9wo0-182" value="&lt;b&gt;&lt;font color=&quot;#000099&quot;&gt;VPC-J&lt;/font&gt;&lt;/b&gt;" style="text;html=1;resizable=0;autosize=1;align=center;verticalAlign=middle;points=[];fillColor=none;strokeColor=none;rounded=0;dashed=1;" vertex="1" parent="1">
          <mxGeometry x="-470.26" y="820.13" width="50" height="20" as="geometry" />
        </mxCell>
        <mxCell id="OF8LOPhTF82KZLXo9wo0-183" value="&lt;b&gt;&lt;font color=&quot;#000099&quot;&gt;VPC-I&lt;/font&gt;&lt;/b&gt;" style="text;html=1;resizable=0;autosize=1;align=center;verticalAlign=middle;points=[];fillColor=none;strokeColor=none;rounded=0;dashed=1;" vertex="1" parent="1">
          <mxGeometry x="-580.26" y="820" width="50" height="20" as="geometry" />
        </mxCell>
        <mxCell id="OF8LOPhTF82KZLXo9wo0-184" value="&lt;b&gt;&lt;font color=&quot;#000099&quot;&gt;VPC-H&lt;/font&gt;&lt;/b&gt;" style="text;html=1;resizable=0;autosize=1;align=center;verticalAlign=middle;points=[];fillColor=none;strokeColor=none;rounded=0;dashed=1;" vertex="1" parent="1">
          <mxGeometry x="-679.87" y="820" width="50" height="20" as="geometry" />
        </mxCell>
        <mxCell id="OF8LOPhTF82KZLXo9wo0-185" value="&lt;b&gt;&lt;font color=&quot;#000099&quot;&gt;VPC-M&lt;/font&gt;&lt;/b&gt;" style="text;html=1;resizable=0;autosize=1;align=center;verticalAlign=middle;points=[];fillColor=none;strokeColor=none;rounded=0;dashed=1;" vertex="1" parent="1">
          <mxGeometry x="-840.13" y="1040" width="50" height="20" as="geometry" />
        </mxCell>
        <mxCell id="OF8LOPhTF82KZLXo9wo0-186" value="&lt;b&gt;&lt;font color=&quot;#000099&quot;&gt;VPC-L&lt;/font&gt;&lt;/b&gt;" style="text;html=1;resizable=0;autosize=1;align=center;verticalAlign=middle;points=[];fillColor=none;strokeColor=none;rounded=0;dashed=1;" vertex="1" parent="1">
          <mxGeometry x="-840.13" y="938" width="50" height="20" as="geometry" />
        </mxCell>
        <mxCell id="OF8LOPhTF82KZLXo9wo0-187" value="&lt;b&gt;&lt;font color=&quot;#000099&quot;&gt;VPC-K&lt;/font&gt;&lt;/b&gt;" style="text;html=1;resizable=0;autosize=1;align=center;verticalAlign=middle;points=[];fillColor=none;strokeColor=none;rounded=0;dashed=1;" vertex="1" parent="1">
          <mxGeometry x="-360.07" y="820" width="50" height="20" as="geometry" />
        </mxCell>
        <mxCell id="OF8LOPhTF82KZLXo9wo0-189" value="" style="points=[[0,0,0],[0.25,0,0],[0.5,0,0],[0.75,0,0],[1,0,0],[0,1,0],[0.25,1,0],[0.5,1,0],[0.75,1,0],[1,1,0],[0,0.25,0],[0,0.5,0],[0,0.75,0],[1,0.25,0],[1,0.5,0],[1,0.75,0]];outlineConnect=0;fontColor=#232F3E;gradientColor=#945DF2;gradientDirection=north;fillColor=#5A30B5;strokeColor=#ffffff;dashed=0;verticalLabelPosition=bottom;verticalAlign=top;align=center;html=1;fontSize=12;fontStyle=0;aspect=fixed;shape=mxgraph.aws4.resourceIcon;resIcon=mxgraph.aws4.vpc;" vertex="1" parent="1">
          <mxGeometry x="-90" y="456.38" width="49.87" height="49.87" as="geometry" />
        </mxCell>
        <mxCell id="OF8LOPhTF82KZLXo9wo0-238" style="edgeStyle=orthogonalEdgeStyle;rounded=0;orthogonalLoop=1;jettySize=auto;html=1;exitX=0.5;exitY=1;exitDx=0;exitDy=0;exitPerimeter=0;entryX=0.5;entryY=0;entryDx=0;entryDy=0;entryPerimeter=0;startArrow=classic;startFill=1;endArrow=classic;endFill=1;" edge="1" parent="1" source="OF8LOPhTF82KZLXo9wo0-190" target="OF8LOPhTF82KZLXo9wo0-237">
          <mxGeometry relative="1" as="geometry" />
        </mxCell>
        <mxCell id="OF8LOPhTF82KZLXo9wo0-190" value="" style="points=[[0,0,0],[0.25,0,0],[0.5,0,0],[0.75,0,0],[1,0,0],[0,1,0],[0.25,1,0],[0.5,1,0],[0.75,1,0],[1,1,0],[0,0.25,0],[0,0.5,0],[0,0.75,0],[1,0.25,0],[1,0.5,0],[1,0.75,0]];outlineConnect=0;fontColor=#232F3E;gradientColor=#945DF2;gradientDirection=north;fillColor=#5A30B5;strokeColor=#ffffff;dashed=0;verticalLabelPosition=bottom;verticalAlign=top;align=center;html=1;fontSize=12;fontStyle=0;aspect=fixed;shape=mxgraph.aws4.resourceIcon;resIcon=mxgraph.aws4.transit_gateway;" vertex="1" parent="1">
          <mxGeometry x="-400" y="990" width="60" height="60" as="geometry" />
        </mxCell>
        <mxCell id="OF8LOPhTF82KZLXo9wo0-214" style="edgeStyle=orthogonalEdgeStyle;rounded=0;orthogonalLoop=1;jettySize=auto;html=1;exitX=0.5;exitY=1;exitDx=0;exitDy=0;exitPerimeter=0;startArrow=classic;startFill=1;endArrow=none;endFill=0;" edge="1" parent="1" source="OF8LOPhTF82KZLXo9wo0-191">
          <mxGeometry relative="1" as="geometry">
            <mxPoint x="-705" y="1020" as="targetPoint" />
          </mxGeometry>
        </mxCell>
        <mxCell id="OF8LOPhTF82KZLXo9wo0-191" value="" style="points=[[0,0,0],[0.25,0,0],[0.5,0,0],[0.75,0,0],[1,0,0],[0,1,0],[0.25,1,0],[0.5,1,0],[0.75,1,0],[1,1,0],[0,0.25,0],[0,0.5,0],[0,0.75,0],[1,0.25,0],[1,0.5,0],[1,0.75,0]];outlineConnect=0;fontColor=#232F3E;gradientColor=#945DF2;gradientDirection=north;fillColor=#5A30B5;strokeColor=#ffffff;dashed=0;verticalLabelPosition=bottom;verticalAlign=top;align=center;html=1;fontSize=12;fontStyle=0;aspect=fixed;shape=mxgraph.aws4.resourceIcon;resIcon=mxgraph.aws4.vpc;" vertex="1" parent="1">
          <mxGeometry x="-729.74" y="958" width="49.87" height="49.87" as="geometry" />
        </mxCell>
        <mxCell id="OF8LOPhTF82KZLXo9wo0-217" style="edgeStyle=orthogonalEdgeStyle;rounded=0;orthogonalLoop=1;jettySize=auto;html=1;startArrow=classic;startFill=1;endArrow=none;endFill=0;" edge="1" parent="1" source="OF8LOPhTF82KZLXo9wo0-192">
          <mxGeometry relative="1" as="geometry">
            <mxPoint x="-695.065" y="1140" as="targetPoint" />
          </mxGeometry>
        </mxCell>
        <mxCell id="OF8LOPhTF82KZLXo9wo0-192" value="" style="points=[[0,0,0],[0.25,0,0],[0.5,0,0],[0.75,0,0],[1,0,0],[0,1,0],[0.25,1,0],[0.5,1,0],[0.75,1,0],[1,1,0],[0,0.25,0],[0,0.5,0],[0,0.75,0],[1,0.25,0],[1,0.5,0],[1,0.75,0]];outlineConnect=0;fontColor=#232F3E;gradientColor=#945DF2;gradientDirection=north;fillColor=#5A30B5;strokeColor=#ffffff;dashed=0;verticalLabelPosition=bottom;verticalAlign=top;align=center;html=1;fontSize=12;fontStyle=0;aspect=fixed;shape=mxgraph.aws4.resourceIcon;resIcon=mxgraph.aws4.vpc;" vertex="1" parent="1">
          <mxGeometry x="-720" y="1060" width="49.87" height="49.87" as="geometry" />
        </mxCell>
        <mxCell id="OF8LOPhTF82KZLXo9wo0-215" style="edgeStyle=orthogonalEdgeStyle;rounded=0;orthogonalLoop=1;jettySize=auto;html=1;exitX=0.5;exitY=1;exitDx=0;exitDy=0;exitPerimeter=0;startArrow=classic;startFill=1;endArrow=none;endFill=0;" edge="1" parent="1" source="OF8LOPhTF82KZLXo9wo0-193">
          <mxGeometry relative="1" as="geometry">
            <mxPoint x="-585" y="1020" as="targetPoint" />
          </mxGeometry>
        </mxCell>
        <mxCell id="OF8LOPhTF82KZLXo9wo0-193" value="" style="points=[[0,0,0],[0.25,0,0],[0.5,0,0],[0.75,0,0],[1,0,0],[0,1,0],[0.25,1,0],[0.5,1,0],[0.75,1,0],[1,1,0],[0,0.25,0],[0,0.5,0],[0,0.75,0],[1,0.25,0],[1,0.5,0],[1,0.75,0]];outlineConnect=0;fontColor=#232F3E;gradientColor=#945DF2;gradientDirection=north;fillColor=#5A30B5;strokeColor=#ffffff;dashed=0;verticalLabelPosition=bottom;verticalAlign=top;align=center;html=1;fontSize=12;fontStyle=0;aspect=fixed;shape=mxgraph.aws4.resourceIcon;resIcon=mxgraph.aws4.vpc;" vertex="1" parent="1">
          <mxGeometry x="-610" y="958" width="49.87" height="49.87" as="geometry" />
        </mxCell>
        <mxCell id="OF8LOPhTF82KZLXo9wo0-218" style="edgeStyle=orthogonalEdgeStyle;rounded=0;orthogonalLoop=1;jettySize=auto;html=1;startArrow=classic;startFill=1;endArrow=none;endFill=0;" edge="1" parent="1" source="OF8LOPhTF82KZLXo9wo0-194">
          <mxGeometry relative="1" as="geometry">
            <mxPoint x="-584.935" y="1140" as="targetPoint" />
          </mxGeometry>
        </mxCell>
        <mxCell id="OF8LOPhTF82KZLXo9wo0-194" value="" style="points=[[0,0,0],[0.25,0,0],[0.5,0,0],[0.75,0,0],[1,0,0],[0,1,0],[0.25,1,0],[0.5,1,0],[0.75,1,0],[1,1,0],[0,0.25,0],[0,0.5,0],[0,0.75,0],[1,0.25,0],[1,0.5,0],[1,0.75,0]];outlineConnect=0;fontColor=#232F3E;gradientColor=#945DF2;gradientDirection=north;fillColor=#5A30B5;strokeColor=#ffffff;dashed=0;verticalLabelPosition=bottom;verticalAlign=top;align=center;html=1;fontSize=12;fontStyle=0;aspect=fixed;shape=mxgraph.aws4.resourceIcon;resIcon=mxgraph.aws4.vpc;" vertex="1" parent="1">
          <mxGeometry x="-609.87" y="1060" width="49.87" height="49.87" as="geometry" />
        </mxCell>
        <mxCell id="OF8LOPhTF82KZLXo9wo0-195" value="&lt;b&gt;&lt;font color=&quot;#000099&quot;&gt;VPC-Q&lt;/font&gt;&lt;/b&gt;" style="text;html=1;resizable=0;autosize=1;align=center;verticalAlign=middle;points=[];fillColor=none;strokeColor=none;rounded=0;dashed=1;" vertex="1" parent="1">
          <mxGeometry x="-610.13" y="1040.1299999999999" width="50" height="20" as="geometry" />
        </mxCell>
        <mxCell id="OF8LOPhTF82KZLXo9wo0-196" value="&lt;b&gt;&lt;font color=&quot;#000099&quot;&gt;VPC-P&lt;/font&gt;&lt;/b&gt;" style="text;html=1;resizable=0;autosize=1;align=center;verticalAlign=middle;points=[];fillColor=none;strokeColor=none;rounded=0;dashed=1;" vertex="1" parent="1">
          <mxGeometry x="-610" y="938" width="50" height="20" as="geometry" />
        </mxCell>
        <mxCell id="OF8LOPhTF82KZLXo9wo0-197" value="&lt;b&gt;&lt;font color=&quot;#000099&quot;&gt;VPC-O&lt;/font&gt;&lt;/b&gt;" style="text;html=1;resizable=0;autosize=1;align=center;verticalAlign=middle;points=[];fillColor=none;strokeColor=none;rounded=0;dashed=1;" vertex="1" parent="1">
          <mxGeometry x="-720" y="1040.1299999999999" width="50" height="20" as="geometry" />
        </mxCell>
        <mxCell id="OF8LOPhTF82KZLXo9wo0-198" value="&lt;b&gt;&lt;font color=&quot;#000099&quot;&gt;VPC-N&lt;/font&gt;&lt;/b&gt;" style="text;html=1;resizable=0;autosize=1;align=center;verticalAlign=middle;points=[];fillColor=none;strokeColor=none;rounded=0;dashed=1;" vertex="1" parent="1">
          <mxGeometry x="-729.74" y="940" width="50" height="20" as="geometry" />
        </mxCell>
        <mxCell id="OF8LOPhTF82KZLXo9wo0-219" value="&lt;b&gt;&lt;font color=&quot;#000099&quot;&gt;TGW-A&lt;/font&gt;&lt;/b&gt;" style="text;html=1;resizable=0;autosize=1;align=center;verticalAlign=middle;points=[];fillColor=none;strokeColor=none;rounded=0;dashed=1;" vertex="1" parent="1">
          <mxGeometry x="-340" y="1028" width="60" height="20" as="geometry" />
        </mxCell>
        <mxCell id="OF8LOPhTF82KZLXo9wo0-220" value="" style="points=[[0,0,0],[0.25,0,0],[0.5,0,0],[0.75,0,0],[1,0,0],[0,1,0],[0.25,1,0],[0.5,1,0],[0.75,1,0],[1,1,0],[0,0.25,0],[0,0.5,0],[0,0.75,0],[1,0.25,0],[1,0.5,0],[1,0.75,0]];outlineConnect=0;fontColor=#232F3E;gradientColor=#945DF2;gradientDirection=north;fillColor=#5A30B5;strokeColor=#ffffff;dashed=0;verticalLabelPosition=bottom;verticalAlign=top;align=center;html=1;fontSize=12;fontStyle=0;aspect=fixed;shape=mxgraph.aws4.resourceIcon;resIcon=mxgraph.aws4.vpc;" vertex="1" parent="1">
          <mxGeometry x="-150" y="1120.07" width="49.87" height="49.87" as="geometry" />
        </mxCell>
        <mxCell id="OF8LOPhTF82KZLXo9wo0-235" style="edgeStyle=orthogonalEdgeStyle;rounded=0;orthogonalLoop=1;jettySize=auto;html=1;startArrow=classic;startFill=1;endArrow=none;endFill=0;" edge="1" parent="1" source="OF8LOPhTF82KZLXo9wo0-221">
          <mxGeometry relative="1" as="geometry">
            <mxPoint x="-200" y="885" as="targetPoint" />
          </mxGeometry>
        </mxCell>
        <mxCell id="OF8LOPhTF82KZLXo9wo0-221" value="" style="outlineConnect=0;dashed=0;verticalLabelPosition=bottom;verticalAlign=top;align=center;html=1;shape=mxgraph.aws3.vpn_gateway;fillColor=#F58536;gradientColor=none;strokeColor=#FFB570;" vertex="1" parent="1">
          <mxGeometry x="-160" y="860" width="50" height="50" as="geometry" />
        </mxCell>
        <mxCell id="OF8LOPhTF82KZLXo9wo0-234" style="edgeStyle=orthogonalEdgeStyle;rounded=0;orthogonalLoop=1;jettySize=auto;html=1;startArrow=classic;startFill=1;endArrow=none;endFill=0;" edge="1" parent="1" source="OF8LOPhTF82KZLXo9wo0-222">
          <mxGeometry relative="1" as="geometry">
            <mxPoint x="-200" y="965" as="targetPoint" />
          </mxGeometry>
        </mxCell>
        <mxCell id="OF8LOPhTF82KZLXo9wo0-222" value="" style="outlineConnect=0;dashed=0;verticalLabelPosition=bottom;verticalAlign=top;align=center;html=1;shape=mxgraph.aws3.vpn_gateway;fillColor=#F58536;gradientColor=none;strokeColor=#FFB570;" vertex="1" parent="1">
          <mxGeometry x="-160" y="940" width="50" height="50" as="geometry" />
        </mxCell>
        <mxCell id="OF8LOPhTF82KZLXo9wo0-233" style="edgeStyle=orthogonalEdgeStyle;rounded=0;orthogonalLoop=1;jettySize=auto;html=1;entryX=1;entryY=0.5;entryDx=0;entryDy=0;entryPerimeter=0;startArrow=classic;startFill=1;endArrow=classic;endFill=1;" edge="1" parent="1" source="OF8LOPhTF82KZLXo9wo0-223" target="OF8LOPhTF82KZLXo9wo0-190">
          <mxGeometry relative="1" as="geometry">
            <Array as="points">
              <mxPoint x="-200" y="1045" />
              <mxPoint x="-200" y="1020" />
            </Array>
          </mxGeometry>
        </mxCell>
        <mxCell id="OF8LOPhTF82KZLXo9wo0-223" value="" style="outlineConnect=0;dashed=0;verticalLabelPosition=bottom;verticalAlign=top;align=center;html=1;shape=mxgraph.aws3.vpn_gateway;fillColor=#F58536;gradientColor=none;strokeColor=#FFB570;" vertex="1" parent="1">
          <mxGeometry x="-160" y="1020" width="50" height="50" as="geometry" />
        </mxCell>
        <mxCell id="OF8LOPhTF82KZLXo9wo0-236" style="edgeStyle=orthogonalEdgeStyle;rounded=0;orthogonalLoop=1;jettySize=auto;html=1;startArrow=classic;startFill=1;endArrow=none;endFill=0;" edge="1" parent="1" source="OF8LOPhTF82KZLXo9wo0-224">
          <mxGeometry relative="1" as="geometry">
            <mxPoint x="-200" y="805" as="targetPoint" />
          </mxGeometry>
        </mxCell>
        <mxCell id="OF8LOPhTF82KZLXo9wo0-224" value="" style="outlineConnect=0;dashed=0;verticalLabelPosition=bottom;verticalAlign=top;align=center;html=1;shape=mxgraph.aws3.vpn_gateway;fillColor=#F58536;gradientColor=none;strokeColor=#FFB570;" vertex="1" parent="1">
          <mxGeometry x="-160" y="780" width="50" height="50" as="geometry" />
        </mxCell>
        <mxCell id="OF8LOPhTF82KZLXo9wo0-232" style="edgeStyle=orthogonalEdgeStyle;rounded=0;orthogonalLoop=1;jettySize=auto;html=1;entryX=1;entryY=0.5;entryDx=0;entryDy=0;entryPerimeter=0;startArrow=classic;startFill=1;endArrow=classic;endFill=1;" edge="1" parent="1" source="OF8LOPhTF82KZLXo9wo0-225" target="OF8LOPhTF82KZLXo9wo0-190">
          <mxGeometry relative="1" as="geometry">
            <Array as="points">
              <mxPoint x="-200" y="730" />
              <mxPoint x="-200" y="1020" />
            </Array>
          </mxGeometry>
        </mxCell>
        <mxCell id="OF8LOPhTF82KZLXo9wo0-225" value="" style="outlineConnect=0;dashed=0;verticalLabelPosition=bottom;verticalAlign=top;align=center;html=1;shape=mxgraph.aws3.vpn_gateway;fillColor=#F58536;gradientColor=none;strokeColor=#FFB570;" vertex="1" parent="1">
          <mxGeometry x="-160" y="705" width="50" height="50" as="geometry" />
        </mxCell>
        <mxCell id="OF8LOPhTF82KZLXo9wo0-226" value="&lt;b&gt;&lt;font color=&quot;#000099&quot;&gt;VPN-E&lt;/font&gt;&lt;/b&gt;" style="text;html=1;resizable=0;autosize=1;align=center;verticalAlign=middle;points=[];fillColor=none;strokeColor=none;rounded=0;dashed=1;" vertex="1" parent="1">
          <mxGeometry x="-160" y="999.9999999999999" width="50" height="20" as="geometry" />
        </mxCell>
        <mxCell id="OF8LOPhTF82KZLXo9wo0-227" value="&lt;b&gt;&lt;font color=&quot;#000099&quot;&gt;VPN-D&lt;/font&gt;&lt;/b&gt;" style="text;html=1;resizable=0;autosize=1;align=center;verticalAlign=middle;points=[];fillColor=none;strokeColor=none;rounded=0;dashed=1;" vertex="1" parent="1">
          <mxGeometry x="-160" y="919.9999999999999" width="50" height="20" as="geometry" />
        </mxCell>
        <mxCell id="OF8LOPhTF82KZLXo9wo0-228" value="&lt;b&gt;&lt;font color=&quot;#000099&quot;&gt;VPN-C&lt;/font&gt;&lt;/b&gt;" style="text;html=1;resizable=0;autosize=1;align=center;verticalAlign=middle;points=[];fillColor=none;strokeColor=none;rounded=0;dashed=1;" vertex="1" parent="1">
          <mxGeometry x="-160" y="840.1299999999999" width="50" height="20" as="geometry" />
        </mxCell>
        <mxCell id="OF8LOPhTF82KZLXo9wo0-229" value="&lt;b&gt;&lt;font color=&quot;#000099&quot;&gt;VPN-B&lt;/font&gt;&lt;/b&gt;" style="text;html=1;resizable=0;autosize=1;align=center;verticalAlign=middle;points=[];fillColor=none;strokeColor=none;rounded=0;dashed=1;" vertex="1" parent="1">
          <mxGeometry x="-160" y="762.7499999999999" width="50" height="20" as="geometry" />
        </mxCell>
        <mxCell id="OF8LOPhTF82KZLXo9wo0-230" value="&lt;b&gt;&lt;font color=&quot;#000099&quot;&gt;VPN-A&lt;/font&gt;&lt;/b&gt;" style="text;html=1;resizable=0;autosize=1;align=center;verticalAlign=middle;points=[];fillColor=none;strokeColor=none;rounded=0;dashed=1;" vertex="1" parent="1">
          <mxGeometry x="-160" y="687.8699999999999" width="50" height="20" as="geometry" />
        </mxCell>
        <mxCell id="OF8LOPhTF82KZLXo9wo0-237" value="" style="outlineConnect=0;dashed=0;verticalLabelPosition=bottom;verticalAlign=top;align=center;html=1;shape=mxgraph.aws3.direct_connect;fillColor=#F58536;gradientColor=none;strokeColor=#FFB570;" vertex="1" parent="1">
          <mxGeometry x="-400" y="1230" width="60" height="60" as="geometry" />
        </mxCell>
        <mxCell id="OF8LOPhTF82KZLXo9wo0-239" value="" style="rounded=1;arcSize=10;dashed=1;fillColor=none;gradientColor=none;strokeWidth=1;strokeColor=#FF8000;" vertex="1" parent="1">
          <mxGeometry x="-879.74" y="660" width="799.74" height="540" as="geometry" />
        </mxCell>
        <mxCell id="OF8LOPhTF82KZLXo9wo0-241" value="&lt;b&gt;&lt;font color=&quot;#ff8000&quot;&gt;US East (N. Virginia)us-east-1&lt;/font&gt;&lt;/b&gt;" style="text;html=1;resizable=0;autosize=1;align=center;verticalAlign=middle;points=[];fillColor=none;strokeColor=none;rounded=0;dashed=1;" vertex="1" parent="1">
          <mxGeometry x="-840.13" y="665.4999999999999" width="180" height="20" as="geometry" />
        </mxCell>
        <mxCell id="OF8LOPhTF82KZLXo9wo0-246" style="edgeStyle=orthogonalEdgeStyle;rounded=0;orthogonalLoop=1;jettySize=auto;html=1;startArrow=classic;startFill=1;endArrow=classic;endFill=1;" edge="1" parent="1" source="OF8LOPhTF82KZLXo9wo0-243" target="OF8LOPhTF82KZLXo9wo0-220">
          <mxGeometry relative="1" as="geometry" />
        </mxCell>
        <mxCell id="OF8LOPhTF82KZLXo9wo0-243" value="" style="points=[[0,0,0],[0.25,0,0],[0.5,0,0],[0.75,0,0],[1,0,0],[0,1,0],[0.25,1,0],[0.5,1,0],[0.75,1,0],[1,1,0],[0,0.25,0],[0,0.5,0],[0,0.75,0],[1,0.25,0],[1,0.5,0],[1,0.75,0]];outlineConnect=0;fontColor=#232F3E;gradientColor=#945DF2;gradientDirection=north;fillColor=#5A30B5;strokeColor=#ffffff;dashed=0;verticalLabelPosition=bottom;verticalAlign=top;align=center;html=1;fontSize=12;fontStyle=0;aspect=fixed;shape=mxgraph.aws4.resourceIcon;resIcon=mxgraph.aws4.transit_gateway;" vertex="1" parent="1">
          <mxGeometry x="-280" y="1115" width="60" height="60" as="geometry" />
        </mxCell>
        <mxCell id="OF8LOPhTF82KZLXo9wo0-244" value="&lt;b&gt;&lt;font color=&quot;#000099&quot;&gt;VPC-R&lt;/font&gt;&lt;/b&gt;" style="text;html=1;resizable=0;autosize=1;align=center;verticalAlign=middle;points=[];fillColor=none;strokeColor=none;rounded=0;dashed=1;" vertex="1" parent="1">
          <mxGeometry x="-150.13" y="1095" width="50" height="20" as="geometry" />
        </mxCell>
        <mxCell id="OF8LOPhTF82KZLXo9wo0-245" value="&lt;b&gt;&lt;font color=&quot;#000099&quot;&gt;TGW-B&lt;/font&gt;&lt;/b&gt;" style="text;html=1;resizable=0;autosize=1;align=center;verticalAlign=middle;points=[];fillColor=none;strokeColor=none;rounded=0;dashed=1;" vertex="1" parent="1">
          <mxGeometry x="-280" y="1095" width="60" height="20" as="geometry" />
        </mxCell>
        <mxCell id="OF8LOPhTF82KZLXo9wo0-247" value="&lt;b&gt;&lt;font color=&quot;#000099&quot;&gt;Direct-Connect&lt;/font&gt;&lt;/b&gt;" style="text;html=1;resizable=0;autosize=1;align=center;verticalAlign=middle;points=[];fillColor=none;strokeColor=none;rounded=0;dashed=1;" vertex="1" parent="1">
          <mxGeometry x="-340" y="1250" width="100" height="20" as="geometry" />
        </mxCell>
      </root>
    </mxGraphModel>
  </diagram>
</mxfile>
